<svg width="17" height="17" viewBox="0 0 17 17" fill="none" xmlns="http://www.w3.org/2000/svg">
<path d="M12.75 1.24974C12.947 1.05276 13.1808 0.8965 13.4382 0.789894C13.6956 0.683287 13.9714 0.628418 14.25 0.628418C14.5286 0.628418 14.8044 0.683287 15.0618 0.789894C15.3192 0.8965 15.553 1.05276 15.75 1.24974C15.947 1.44672 16.1032 1.68057 16.2098 1.93794C16.3164 2.19531 16.3713 2.47116 16.3713 2.74974C16.3713 3.02831 16.3164 3.30416 16.2098 3.56153C16.1032 3.8189 15.947 4.05276 15.75 4.24974L5.625 14.3747L1.5 15.4997L2.625 11.3747L12.75 1.24974Z" stroke="#6AC7BE" stroke-width="1.25" stroke-linecap="round" stroke-linejoin="round"/>
</svg>
